# xmcd
#
# Track frame offsets:
# 180
# 18860
# 39800
# 55707
# 75002
# 94635
# 107202
# 133297
# 149527
# 169062
# 188340
#
# Disc length: 2757 seconds
#
#
# Revision: 0
# Processed by: cddbd v1.5.1PL0 Copyright (c) Steve Scherf et al.
# Submitted via: FreeRIP 2.91 
#
DISCID=7c0ac30b
DTITLE=Ezra Charles and the Works - Drive Time
DYEAR=1996
DGENRE=Blues
TTITLE0=Drive Time
TTITLE1=Lottery Song
TTITLE2=Shootaround
TTITLE3=To Touch the Rainbow
TTITLE4=Trouble Girl
TTITLE5=Ezra's Boogie-Woogie
TTITLE6=I Don't Work for a Living
TTITLE7=Girl Who Wears my Ring
TTITLE8=Work With Me
TTITLE9=A Little Of This
TTITLE10=Drive Time
EXTD=
EXTT0=
EXTT1=
EXTT2=
EXTT3=
EXTT4=
EXTT5=
EXTT6=
EXTT7=
EXTT8=
EXTT9=
EXTT10=
PLAYORDER=
